<!--?xml version="1.0" encoding="utf-8"?-->
<!-- Generator: Adobe Illustrator 15.1.0, SVG Export Plug-In . SVG Version: 6.00 Build 0)  -->

<svg version="1.1" id="_x32_" xmlns="http://www.w3.org/2000/svg" xmlns:xlink="http://www.w3.org/1999/xlink" x="0px" y="0px" width="512px" height="512px" viewBox="0 0 512 512" style="width: 64px; height: 64px; opacity: 1;" xml:space="preserve">
<style type="text/css">

	.st0{fill:#4B4B4B;}

</style>
<g>
	<path class="st0" d="M0,0v512h512V0H0z M464,464H307.891V332.422H204.109V464H48V48h416V464z" style="fill: rgb(58, 171, 210);"></path>
	<polygon class="st0" points="228.859,232.422 283.141,232.422 283.141,183.563 332,183.563 332,129.281 283.141,129.281 
		283.141,80.422 228.859,80.422 228.859,129.281 180,129.281 180,183.563 228.859,183.563 	" style="fill: rgb(58, 171, 210);"></polygon>
	<rect x="99.406" y="192.422" class="st0" width="40.063" height="72.828" style="fill: rgb(58, 171, 210);"></rect>
	<rect x="99.406" y="363.594" class="st0" width="40.063" height="72.828" style="fill: rgb(58, 171, 210);"></rect>
	<rect x="372.531" y="192.422" class="st0" width="40.063" height="72.828" style="fill: rgb(58, 171, 210);"></rect>
	<rect x="372.531" y="363.594" class="st0" width="40.063" height="72.828" style="fill: rgb(58, 171, 210);"></rect>
</g>
</svg>
